<svg width="1235" height="390" viewBox="0 0 1235 390" fill="none" xmlns="http://www.w3.org/2000/svg">
<path d="M195.051 389.554C143.123 389.554 94.2828 369.332 57.5256 332.609C20.803 295.886 0.580322 247.046 0.580322 195.081C0.580322 143.154 20.803 94.3136 57.5256 57.5592C94.2857 20.8337 143.126 0.611084 195.051 0.611084C242.339 0.611084 287.912 17.7704 323.377 48.9307C325.168 50.5055 325.346 53.2349 323.771 55.0257C322.196 56.8164 319.467 56.9921 317.676 55.4201C283.789 25.6447 240.241 9.24832 195.051 9.24832C145.432 9.24832 98.7598 28.5727 63.6321 63.6658C28.5419 98.7876 9.21756 145.46 9.21756 195.081C9.21756 244.737 28.5419 291.407 63.6321 326.5C98.7569 361.59 145.43 380.914 195.051 380.914C230.377 380.914 264.713 370.987 294.341 352.21C346.415 319.23 375.773 254.756 404.167 192.404C432.828 129.458 462.465 64.3711 515.768 30.6514C546.836 10.9988 582.767 0.611084 619.68 0.611084C671.642 0.611084 720.482 20.8337 757.205 57.5564C770.929 71.2809 782.472 86.8884 791.521 103.941C792.638 106.049 791.834 108.663 789.727 109.78C787.619 110.894 785.005 110.094 783.888 107.989C775.242 91.6907 764.21 76.7771 751.095 63.6629C716.005 28.5727 669.333 9.24832 619.68 9.24832C584.406 9.24832 550.07 19.1754 520.386 37.9527C469.26 70.2963 440.164 134.192 412.029 195.985C383.115 259.489 353.213 325.155 298.968 359.508C267.952 379.164 232.021 389.554 195.051 389.554Z" fill="url(#paint0_linear_0_1)"/>
<path d="M195.051 389.554C143.123 389.554 94.2828 369.332 57.5256 332.609C20.803 295.886 0.580322 247.046 0.580322 195.081C0.580322 143.154 20.803 94.3136 57.5256 57.5592C94.2857 20.8337 143.126 0.611084 195.051 0.611084C242.339 0.611084 287.912 17.7704 323.377 48.9307C325.168 50.5055 325.346 53.2349 323.771 55.0257C322.196 56.8164 319.467 56.9921 317.676 55.4201C283.789 25.6447 240.241 9.24832 195.051 9.24832C145.432 9.24832 98.7598 28.5727 63.6321 63.6658C28.5419 98.7876 9.21756 145.46 9.21756 195.081C9.21756 244.737 28.5419 291.407 63.6321 326.5C98.7569 361.59 145.43 380.914 195.051 380.914C230.377 380.914 264.713 370.987 294.341 352.21C346.415 319.23 375.773 254.756 404.167 192.404C432.828 129.458 462.465 64.3711 515.768 30.6514C546.836 10.9988 582.767 0.611084 619.68 0.611084C671.642 0.611084 720.482 20.8337 757.205 57.5564C770.929 71.2809 782.472 86.8884 791.521 103.941C792.638 106.049 791.834 108.663 789.727 109.78C787.619 110.894 785.005 110.094 783.888 107.989C775.242 91.6907 764.21 76.7771 751.095 63.6629C716.005 28.5727 669.333 9.24832 619.68 9.24832C584.406 9.24832 550.07 19.1754 520.386 37.9527C469.26 70.2963 440.164 134.192 412.029 195.985C383.115 259.489 353.213 325.155 298.968 359.508C267.952 379.164 232.021 389.554 195.051 389.554Z" fill="url(#paint1_linear_0_1)"/>
<path d="M1040.26 0.588226C1092.19 0.588226 1141.03 20.8109 1177.79 57.5335C1214.51 94.2561 1234.73 143.097 1234.73 195.061C1234.73 246.988 1214.51 295.829 1177.79 332.583C1141.03 369.309 1092.19 389.531 1040.26 389.531C992.973 389.531 947.4 372.372 911.936 341.212C910.145 339.637 909.967 336.908 911.542 335.117C913.116 333.326 915.846 333.151 917.637 334.722C951.523 364.498 995.072 380.894 1040.26 380.894C1089.88 380.894 1136.55 361.57 1171.68 326.477C1206.77 291.355 1226.1 244.682 1226.1 195.061C1226.1 145.406 1206.77 98.736 1171.68 63.6429C1136.56 28.5527 1089.88 9.22836 1040.26 9.22836C1004.94 9.22836 970.6 19.1554 940.971 37.9327C888.898 70.9126 859.54 135.387 831.146 197.739C802.485 260.684 772.848 325.771 719.544 359.491C688.476 379.144 652.545 389.531 615.633 389.531C563.671 389.531 514.831 369.309 478.108 332.586C464.383 318.862 452.841 303.254 443.792 286.201C442.675 284.094 443.478 281.48 445.586 280.363C447.693 279.248 450.307 280.049 451.425 282.153C460.07 298.452 471.103 313.365 484.217 326.48C519.307 361.57 565.98 380.894 615.633 380.894C650.907 380.894 685.243 370.967 714.926 352.19C766.053 319.846 795.149 255.951 823.283 194.157C852.198 130.653 882.1 64.9875 936.345 30.6343C967.361 10.9788 1003.29 0.588226 1040.26 0.588226Z" fill="url(#paint2_linear_0_1)"/>
<path d="M1040.26 0.588226C1092.19 0.588226 1141.03 20.8109 1177.79 57.5335C1214.51 94.2561 1234.73 143.097 1234.73 195.061C1234.73 246.988 1214.51 295.829 1177.79 332.583C1141.03 369.309 1092.19 389.531 1040.26 389.531C992.973 389.531 947.4 372.372 911.936 341.212C910.145 339.637 909.967 336.908 911.542 335.117C913.116 333.326 915.846 333.151 917.637 334.722C951.523 364.498 995.072 380.894 1040.26 380.894C1089.88 380.894 1136.55 361.57 1171.68 326.477C1206.77 291.355 1226.1 244.682 1226.1 195.061C1226.1 145.406 1206.77 98.736 1171.68 63.6429C1136.56 28.5527 1089.88 9.22836 1040.26 9.22836C1004.94 9.22836 970.6 19.1554 940.971 37.9327C888.898 70.9126 859.54 135.387 831.146 197.739C802.485 260.684 772.848 325.771 719.544 359.491C688.476 379.144 652.545 389.531 615.633 389.531C563.671 389.531 514.831 369.309 478.108 332.586C464.383 318.862 452.841 303.254 443.792 286.201C442.675 284.094 443.478 281.48 445.586 280.363C447.693 279.248 450.307 280.049 451.425 282.153C460.07 298.452 471.103 313.365 484.217 326.48C519.307 361.57 565.98 380.894 615.633 380.894C650.907 380.894 685.243 370.967 714.926 352.19C766.053 319.846 795.149 255.951 823.283 194.157C852.198 130.653 882.1 64.9875 936.345 30.6343C967.361 10.9788 1003.29 0.588226 1040.26 0.588226Z" fill="url(#paint3_linear_0_1)"/>
<path d="M1040.26 0.588226C1092.19 0.588226 1141.03 20.8109 1177.79 57.5335C1214.51 94.2561 1234.73 143.097 1234.73 195.061C1234.73 246.988 1214.51 295.829 1177.79 332.583C1141.03 369.309 1092.19 389.531 1040.26 389.531C992.973 389.531 947.4 372.372 911.936 341.212C910.145 339.637 909.967 336.908 911.542 335.117C913.116 333.326 915.846 333.151 917.637 334.722C951.523 364.498 995.072 380.894 1040.26 380.894C1089.88 380.894 1136.55 361.57 1171.68 326.477C1206.77 291.355 1226.1 244.682 1226.1 195.061C1226.1 145.406 1206.77 98.736 1171.68 63.6429C1136.56 28.5527 1089.88 9.22836 1040.26 9.22836C1004.94 9.22836 970.6 19.1554 940.971 37.9327C888.898 70.9126 859.54 135.387 831.146 197.739C802.485 260.684 772.848 325.771 719.544 359.491C688.476 379.144 652.545 389.531 615.633 389.531C563.671 389.531 514.831 369.309 478.108 332.586C464.383 318.862 452.841 303.254 443.792 286.201C442.675 284.094 443.478 281.48 445.586 280.363C447.693 279.248 450.307 280.049 451.425 282.153C460.07 298.452 471.103 313.365 484.217 326.48C519.307 361.57 565.98 380.894 615.633 380.894C650.907 380.894 685.243 370.967 714.926 352.19C766.053 319.846 795.149 255.951 823.283 194.157C852.198 130.653 882.1 64.9875 936.345 30.6343C967.361 10.9788 1003.29 0.588226 1040.26 0.588226Z" fill="url(#paint4_linear_0_1)"/>
<path d="M328.643 42.2585C333.952 47.0838 334.344 55.3007 329.518 60.6068C324.693 65.9158 316.476 66.3074 311.17 61.4821C305.861 56.6567 305.469 48.4427 310.295 43.1337C315.12 37.8247 323.337 37.4331 328.643 42.2585Z" fill="url(#paint5_linear_0_1)"/>
<path d="M775.667 111.313C778.904 117.713 786.72 120.281 793.12 117.042C799.521 113.806 802.089 105.99 798.85 99.5894C795.614 93.1892 787.797 90.624 781.397 93.8601C774.997 97.0962 772.431 104.91 775.667 111.313Z" fill="url(#paint6_linear_0_1)"/>
<path d="M922.971 329.944C918.052 325.391 910.438 325.763 905.97 330.77C901.498 335.779 901.864 343.531 906.781 348.081C911.7 352.633 919.314 352.261 923.782 347.255C928.251 342.249 927.888 334.496 922.971 329.944Z" fill="#FF36BB"/>
<path d="M436.89 288.876C434.385 282.607 437.347 275.457 443.504 272.907C449.661 270.356 456.683 273.371 459.188 279.641C461.693 285.91 458.731 293.059 452.574 295.61C446.42 298.158 439.395 295.143 436.89 288.876Z" fill="url(#paint7_linear_0_1)"/>
<defs>
<linearGradient id="paint0_linear_0_1" x1="0.580322" y1="195.082" x2="797.437" y2="195.082" gradientUnits="userSpaceOnUse">
<stop offset="0.2609" stop-color="#7B3DD9"/>
<stop offset="0.3807" stop-color="#6260D2"/>
<stop offset="0.6447" stop-color="#24B7C1"/>
<stop offset="0.7005" stop-color="#16CABD"/>
</linearGradient>
<linearGradient id="paint1_linear_0_1" x1="-73.7542" y1="389.554" x2="914.86" y2="273.89" gradientUnits="userSpaceOnUse">
<stop stop-color="#F09819"/>
<stop offset="1" stop-color="#EDDE5D"/>
</linearGradient>
<linearGradient id="paint2_linear_0_1" x1="1234.73" y1="195.06" x2="437.875" y2="195.06" gradientUnits="userSpaceOnUse">
<stop offset="0.2609" stop-color="#7B3DD9"/>
<stop offset="0.3807" stop-color="#6260D2"/>
<stop offset="0.6447" stop-color="#24B7C1"/>
<stop offset="0.7005" stop-color="#16CABD"/>
</linearGradient>
<linearGradient id="paint3_linear_0_1" x1="1239.28" y1="195.06" x2="443.287" y2="195.06" gradientUnits="userSpaceOnUse">
<stop offset="0.369792" stop-color="#FF36BB"/>
<stop offset="0.484375" stop-color="#944CDC"/>
<stop offset="0.744792" stop-color="#84848B"/>
<stop offset="0.911458" stop-color="#16CABD"/>
</linearGradient>
<linearGradient id="paint4_linear_0_1" x1="1309.07" y1="0.58822" x2="320.453" y2="116.252" gradientUnits="userSpaceOnUse">
<stop stop-color="#F09819"/>
<stop offset="1" stop-color="#EDDE5D"/>
</linearGradient>
<linearGradient id="paint5_linear_0_1" x1="0.575415" y1="51.8703" x2="797.44" y2="51.8703" gradientUnits="userSpaceOnUse">
<stop offset="0.2609" stop-color="#7B3DD9"/>
<stop offset="0.3807" stop-color="#6260D2"/>
<stop offset="0.6447" stop-color="#24B7C1"/>
<stop offset="0.7005" stop-color="#16CABD"/>
</linearGradient>
<linearGradient id="paint6_linear_0_1" x1="0.580324" y1="105.45" x2="797.439" y2="105.45" gradientUnits="userSpaceOnUse">
<stop offset="0.2609" stop-color="#7B3DD9"/>
<stop offset="0.3807" stop-color="#6260D2"/>
<stop offset="0.6447" stop-color="#24B7C1"/>
<stop offset="0.7005" stop-color="#16CABD"/>
</linearGradient>
<linearGradient id="paint7_linear_0_1" x1="439.503" y1="284.257" x2="1182.75" y2="284.257" gradientUnits="userSpaceOnUse">
<stop offset="0.3575" stop-color="#16CABD"/>
<stop offset="0.5472" stop-color="#84848B"/>
<stop offset="0.7095" stop-color="#DC4C64"/>
<stop offset="0.7826" stop-color="#FF3654"/>
</linearGradient>
</defs>
</svg>
